<svg width="32" height="32" viewBox="0 0 128 128" fill="#ABB2BF" xmlns="http://www.w3.org/2000/svg">
    <circle cx="4" cy="4" r="4"></circle><circle cx="4" cy="28" r="4"></circle><circle cx="4" cy="52" r="4"></circle><circle cx="4" cy="76" r="4"></circle><circle cx="4" cy="100" r="4"></circle><circle cx="4" cy="124" r="4"></circle><circle cx="28" cy="4" r="4"></circle><circle cx="28" cy="28" r="4"></circle><circle cx="28" cy="52" r="4"></circle><circle cx="28" cy="76" r="4"></circle><circle cx="28" cy="100" r="4"></circle><circle cx="28" cy="124" r="4"></circle><circle cx="52" cy="4" r="4"></circle><circle cx="52" cy="28" r="4"></circle><circle cx="52" cy="52" r="4"></circle><circle cx="52" cy="76" r="4"></circle><circle cx="52" cy="100" r="4"></circle><circle cx="52" cy="124" r="4"></circle><circle cx="76" cy="4" r="4"></circle><circle cx="76" cy="28" r="4"></circle><circle cx="76" cy="52" r="4"></circle><circle cx="76" cy="76" r="4"></circle><circle cx="76" cy="100" r="4"></circle><circle cx="76" cy="124" r="4"></circle><circle cx="100" cy="4" r="4"></circle><circle cx="100" cy="28" r="4"></circle><circle cx="100" cy="52" r="4"></circle><circle cx="100" cy="76" r="4"></circle><circle cx="100" cy="100" r="4"></circle><circle cx="100" cy="124" r="4"></circle><circle cx="124" cy="4" r="4"></circle><circle cx="124" cy="28" r="4"></circle><circle cx="124" cy="52" r="4"></circle><circle cx="124" cy="76" r="4"></circle><circle cx="124" cy="100" r="4"></circle><circle cx="124" cy="124" r="4"></circle>
</svg>
